<svg xmlns="http://www.w3.org/2000/svg" viewBox="0 0 157.52 159.26"><defs><style>.cls-1{fill:#ff6b35;}</style></defs><g id="Layer_2" data-name="Layer 2"><g id="Layer_1-2" data-name="Layer 1"><path class="cls-1" d="M157.51,29.9a9.09,9.09,0,0,1-2.88,6.16q-15.78,15.7-31.47,31.52-14.31,14.31-28.63,28.6Q78,112.79,61.45,129.42q-12.51,12.56-25,25.09c-.76.75-1.49,1.53-2.26,2.28a8.37,8.37,0,0,1-11.86,0q-10.07-10-20-20.12c-3.15-3.19-3-9,.23-12.25Q27.32,99.59,52.13,74.72,85.46,41.29,118.77,7.81q2.69-2.7,5.34-5.41a7.32,7.32,0,0,1,10.64-.21c6.94,6.93,13.82,13.94,20.67,21C157.05,24.82,157.54,27,157.51,29.9Zm-4.28-.78a4.3,4.3,0,0,0-1.14-3q-10-10.16-20-20.32a3.53,3.53,0,0,0-5.16,0c-2.86,2.9-5.7,5.81-8.58,8.68-.56.55-.49.84,0,1.35,2.34,2.35,4.64,4.74,7,7.11,1.07,1.1,1.2,2.33.3,3.18s-1.85.74-3-.39c-2.36-2.39-4.71-4.78-7-7.2-.46-.47-.75-.58-1.27,0Q111,22,107.54,25.39c-.51.5-.46.81,0,1.29,2,2,4,4.06,6,6.11a2.06,2.06,0,0,1,.18,3.05c-.83.79-1.88.69-2.91-.35-2-2-4-4-6-6.11-.5-.53-.76-.48-1.24,0-2.51,2.54-5,5.06-7.59,7.55-.55.54-.62.83,0,1.42,3.26,3.26,6.47,6.56,9.69,9.85,1.06,1.07,1.19,2.43.32,3.32s-2,.67-3.14-.5c-3.22-3.29-6.46-6.56-9.67-9.86-.46-.48-.73-.56-1.25,0-2.47,2.53-5,5-7.51,7.48-.62.6-.5.86,0,1.39,2,2,4,4.06,6,6.12a2.13,2.13,0,0,1,0,3.06c-.82.74-1.85.63-2.82-.36-2-2.07-4-4.13-6-6.23-.48-.5-.71-.44-1.16,0-2.45,2.49-4.92,5-7.43,7.41-.6.58-.62.92,0,1.5,2.22,2.22,4.41,4.47,6.61,6.71a2.17,2.17,0,0,1,.26,3.14c-.85.86-1.86.73-3-.37-2.26-2.29-4.52-4.57-6.75-6.88-.45-.46-.7-.52-1.18,0q-3.72,3.78-7.5,7.49c-.57.56-.57.87,0,1.43,3.25,3.26,6.46,6.56,9.68,9.86a2.2,2.2,0,0,1,.23,3.22c-.89.87-1.92.7-3-.47-3.19-3.27-6.4-6.52-9.58-9.8-.53-.55-.84-.63-1.43,0q-3.69,3.79-7.51,7.48c-.52.51-.49.78,0,1.26,2,2,3.91,4,5.85,6A2.16,2.16,0,0,1,56,93.63c-.83.85-1.88.73-3-.37-1.93-2-3.87-3.9-5.76-5.89-.53-.56-.83-.64-1.41-.05q-3.7,3.8-7.52,7.48c-.54.52-.33.78.07,1.18,2.18,2.21,4.34,4.44,6.52,6.65,1.16,1.18,1.32,2.38.41,3.27s-1.86.7-3-.49c-2.21-2.23-4.43-4.46-6.61-6.72-.45-.46-.71-.51-1.19,0-2.45,2.5-4.91,5-7.42,7.42-.63.6-.53,1,0,1.51,3.2,3.2,6.37,6.44,9.55,9.67,1.09,1.11,1.19,2.43.28,3.31s-1.94.66-3.07-.49c-3.21-3.25-6.42-6.49-9.62-9.76-.44-.45-.71-.62-1.26-.06-2.47,2.53-5,5-7.52,7.47-.54.53-.54.84,0,1.36,2,2,3.92,4,5.86,6a2,2,0,0,1,.16,3c-.86.81-1.87.7-2.9-.34-1.93-2-3.87-3.91-5.76-5.9-.5-.53-.81-.57-1.34,0-1.88,1.94-3.81,3.86-5.74,5.76a4.25,4.25,0,0,0,0,6.27l11.44,11.43c2.7,2.7,5.38,5.42,8.09,8.11a4,4,0,0,0,5.93.07l32-32.07,37.74-37.83q25.26-25.31,50.53-50.62A5.17,5.17,0,0,0,153.23,29.12Z"/></g></g></svg>